<?xml version='1.0' encoding='utf-8'?>
<svg xmlns="http://www.w3.org/2000/svg" version="1.1" viewBox="0 0 54.12 59.955"> <defs> <linearGradient id="a" x1="5.0105" x2="42.765" y1="34.871" y2="13.12" gradientUnits="userSpaceOnUse"> <stop stop-color="#007689" offset="0"/> <stop stop-color="#8defff" offset="1"/> </linearGradient> <filter id="b" x="-.19088" y="-.16531" width="1.4348" height="1.3765" color-interpolation-filters="sRGB"> <feFlood flood-color="rgb(0,0,0)" flood-opacity=".65098" result="flood"/> <feComposite in="SourceGraphic" in2="flood" operator="in" result="composite1"/> <feGaussianBlur in="composite1" result="blur" stdDeviation="3"/> <feOffset dx="2" dy="2" result="offset"/> <feComposite in="SourceGraphic" in2="offset" result="composite2"/> </filter> </defs> <g transform="translate(2.0602 4.9776)"> <g filter="url(#b)"> <path d="m24 2.2224 18.86 10.889-1e-6 21.778-18.86 10.889-18.86-10.889 6e-7 -21.778z" fill="url(#a)" fill-rule="nonzero" stroke="#555" stroke-linecap="round" stroke-width="1.7422"/> <g fill="#fff" fill-opacity=".66143" fill-rule="evenodd" shape-rendering="auto" stroke-width=".13104"> <path d="m15.563 15.857a1.3024 1.3024 0 0 0-0.89523 0.39388l-6.7882 6.7882a1.3024 1.3024 0 0 0 0 1.8417l6.7882 6.7882a1.3024 1.3024 0 1 0 1.8417-1.8417l-5.8671-5.8673 5.8671-5.8673a1.3024 1.3024 0 0 0-0.94641-2.2356z" color="#000000" color-rendering="auto" image-rendering="auto" solid-color="#000000" style="isolation:auto;mix-blend-mode:normal;text-decoration-color:#000000;text-decoration-line:none;text-decoration-style:solid;text-indent:0;text-transform:none;white-space:normal"/> <path d="m32.398 15.857a1.3024 1.3024 0 0 0-0.90726 2.2362l5.8671 5.8673-5.8671 5.8673a1.3024 1.3024 0 1 0 1.8417 1.8417l6.7882-6.7882a1.3024 1.3024 0 0 0 0-1.8417l-6.7882-6.7882a1.3024 1.3024 0 0 0-0.9344-0.39464z" color="#000000" color-rendering="auto" image-rendering="auto" solid-color="#000000" style="isolation:auto;mix-blend-mode:normal;text-decoration-color:#000000;text-decoration-line:none;text-decoration-style:solid;text-indent:0;text-transform:none;white-space:normal"/> <path d="m28.152 14.617a1.3024 1.3024 0 0 0-1.494 0.695l-8.1241 16.214a1.3024 1.3024 0 1 0 2.3287 1.1669l8.1241-16.214a1.3024 1.3024 0 0 0-0.83464-1.8618z" color="#000000" color-rendering="auto" image-rendering="auto" solid-color="#000000" style="isolation:auto;mix-blend-mode:normal;text-decoration-color:#000000;text-decoration-line:none;text-decoration-style:solid;text-indent:0;text-transform:none;white-space:normal"/> </g> </g> </g> </svg>